<svg version="1" xmlns="http://www.w3.org/2000/svg" width="626.667" height="626.667" viewBox="0 0 470.000000 470.000000"><path d="M111.1 1.8c-.5.9-6.1 13.6-12.6 28.2C92.1 44.6 86 58.4 84.9 60.7c-1 2.4-2.8 6.2-3.8 8.5-1.1 2.4-4.4 9.9-7.4 16.8s-6.6 15.1-8.1 18.2c-5.9 13-7.6 16.9-7.6 17.3 0 .2-1.8 4.3-4 9s-4 8.8-4 9c0 .3-1.1 2.8-2.4 5.7-3.1 6.6-32.8 73.9-35 79.2-.9 2.2-1.3 4.3-.9 4.6.5.4 9.7 5.3 20.5 10.8l19.8 10 1.4-3.1c.8-1.8 5.2-11.5 9.6-21.7 4.5-10.2 9.3-21 10.7-24 1.4-3 4.4-10 6.8-15.5 2.4-5.5 5.9-13.5 7.8-17.8l3.6-7.7 12.1 6.1 12 6.2-.2 54.1c-.1 29.8.1 54.7.6 55.4.4.7 8.9 5.3 18.9 10.4 23.5 11.8 25.5 12.8 26 12.8.3 0 .5-12.7.5-28.2 0-15.6.1-42.3.1-59.5l.1-31.2 4.8-.6c24.6-3.3 41.5-15.2 52.9-37 5-9.5 10-24.8 10.2-31 .5-16.9.1-21-3.1-32-4.6-16-14.5-30.7-26.4-39.3-3.5-2.5-16.8-10-29.6-16.5-63-32.1-58.5-30.1-59.7-27.9zm40.6 70.7c21.2 10.7 23.6 12.1 27.2 17 8.4 11.5 7 28.3-3.4 40.2-5.2 5.9-12.4 9.3-19 8.8-2.7-.2-11-3.8-24.7-10.7-11.4-5.6-20.8-10.6-20.8-11 0-.4 1.3-3.5 2.9-7 5.8-12.7 8.1-17.9 8.1-18.3 0-.2 1.8-4.2 4-8.9s4.9-10.8 6.1-13.6c1.2-2.7 2.3-5 2.5-5 .2 0 7.9 3.8 17.1 8.5zM339.2 162.3c-4.1 2.3-8.1 4.6-9 5.2-.9.5-6.7 3.9-12.9 7.4l-11.1 6.3 10.3 20.2c5.6 11 20.5 40.3 33 65.1 12.6 24.7 24.3 47.8 26 51.2 1.8 3.4 2.7 5.9 2.1 5.6-1.3-.7-26.4-17.8-44.1-29.9-6.6-4.6-15.8-10.9-20.5-14.1-4.7-3.1-19.1-13-32-21.8-12.9-8.9-29.2-20-36.1-24.7l-12.6-8.6-15.4 9.1c-8.5 4.9-16.6 9.7-18.1 10.4-1.5.8-3 1.8-3.3 2.3-.3.5 2.3 6.4 5.8 13.2 3.6 6.8 16.2 31.6 28.2 55.3 47.5 93.8 78.5 154.8 79 155.3.2.3 38.4-21.5 39.8-22.8.4-.4-4.3-10.8-10.6-23.1-37.2-73.1-60-117.9-60.6-119.3-.4-.9 45.3 29.7 99.9 66.9 5.8 3.9 18.7 12.6 28.8 19.4l18.2 12.2 17.8-10.1c9.7-5.7 18-10.5 18.3-10.9.9-.8-.9-4.4-61.6-123.6-6.7-13.2-20.9-41.2-31.6-62.3-10.7-21-19.6-38.2-19.9-38.2-.3 0-3.8 1.9-7.8 4.3z"/></svg>