<?xml version="1.0" standalone="no"?>
<!DOCTYPE svg PUBLIC "-//W3C//DTD SVG 20010904//EN"
 "http://www.w3.org/TR/2001/REC-SVG-20010904/DTD/svg10.dtd">
<svg version="1.0" xmlns="http://www.w3.org/2000/svg"
 width="470.000000pt" height="470.000000pt" viewBox="0 0 470.000000 470.000000"
 preserveAspectRatio="xMidYMid meet">
<metadata>
Created by potrace 1.11, written by Peter Selinger 2001-2013
</metadata>
<g transform="translate(0.000000,470.000000) scale(0.100000,-0.100000)"
fill="#000000" stroke="none">
<path d="M1111 4682 c-5 -9 -61 -136 -126 -282 -64 -146 -125 -284 -136 -307
-10 -24 -28 -62 -38 -85 -11 -24 -44 -99 -74 -168 -30 -69 -66 -151 -81 -182
-59 -130 -76 -169 -76 -173 0 -2 -18 -43 -40 -90 -22 -47 -40 -88 -40 -90 0
-3 -11 -28 -24 -57 -31 -66 -328 -739 -350 -792 -9 -22 -13 -43 -9 -46 5 -4
97 -53 205 -108 l198 -100 14 31 c8 18 52 115 96 217 45 102 93 210 107 240
14 30 44 100 68 155 24 55 59 135 78 178 l36 77 121 -61 120 -62 -2 -541 c-1
-298 1 -547 6 -554 4 -7 89 -53 189 -104 235 -118 255 -128 260 -128 3 0 5
127 5 282 0 156 1 423 1 595 l1 312 48 6 c246 33 415 152 529 370 50 95 100
248 102 310 5 169 1 210 -31 320 -46 160 -145 307 -264 393 -35 25 -168 100
-296 165 -630 321 -585 301 -597 279z m406 -707 c212 -107 236 -121 272 -170
84 -115 70 -283 -34 -402 -52 -59 -124 -93 -190 -88 -27 2 -110 38 -247 107
-114 56 -208 106 -208 110 0 4 13 35 29 70 58 127 81 179 81 183 0 2 18 42 40
89 22 47 49 108 61 136 12 27 23 50 25 50 2 0 79 -38 171 -85z"/>
<path d="M3392 3077 c-41 -23 -81 -46 -90 -52 -9 -5 -67 -39 -129 -74 l-111
-63 103 -202 c56 -110 205 -403 330 -651 126 -247 243 -478 260 -512 18 -34
27 -59 21 -56 -13 7 -264 178 -441 299 -66 46 -158 109 -205 141 -47 31 -191
130 -320 218 -129 89 -292 200 -361 247 l-126 86 -154 -91 c-85 -49 -166 -97
-181 -104 -15 -8 -30 -18 -33 -23 -3 -5 23 -64 58 -132 36 -68 162 -316 282
-553 475 -938 785 -1548 790 -1553 2 -3 384 215 398 228 4 4 -43 108 -106 231
-372 731 -600 1179 -606 1193 -4 9 453 -297 999 -669 58 -39 187 -126 288
-194 l182 -122 178 101 c97 57 180 105 183 109 9 8 -9 44 -616 1236 -67 132
-209 412 -316 623 -107 210 -196 382 -199 382 -3 0 -38 -19 -78 -43z"/>
</g>
</svg>
